<!-- Simple soft wave: place at bottom of hero -->
<svg viewBox="0 0 1440 120" xmlns="http://www.w3.org/2000/svg" preserveAspectRatio="none">
  <path fill="#ffffff" d="M0,64L30,85.3C60,107,120,149,180,144C240,139,300,85,360,80C420,75,480,117,540,122.7C600,128,660,96,720,80C780,64,840,64,900,74.7C960,85,1020,107,1080,112C1140,117,1200,107,1260,101.3C1320,96,1380,96,1410,96L1440,96L1440,120L1410,120C1380,120,1320,120,1260,120C1200,120,1140,120,1080,120C1020,120,960,120,900,120C840,120,780,120,720,120C660,120,600,120,540,120C480,120,420,120,360,120C300,120,240,120,180,120C120,120,60,120,30,120L0,120Z"/>
</svg>
